#
# Track frame offsets:
#        150
#        14294
#        39184
#        47808
#        68263
#        114814
#        133357
#        156561
#        188064
#        216794
#        237866
#
# Disc length: 4020 seconds
#
# Revision: 1
# Processed by: cddbd v1.5.2PL0 Copyright (c) Steve Scherf et al.
# Submitted via: ExactAudioCopy v0.99pb5
#
DISCID=8d0fb20b
DTITLE=Richard Wagner / Der Ring Des Niberlungen
DTITLE=c
DYEAR=1966
DGENRE=Opera
TTITLE0=Der Walkuerenritt (Orchesterfassung)
TTITLE1=Das Rheingold - Vorspiel
TTITLE2=Das Rheingold - Der Auftritt Der Riesen
TTITLE3=Das Rheingold - Abstieg Nach Nibelheim
TTITLE4=Das Rheingold - Einzug Der Götter In Walhall
TTITLE5=Die Walküre - Vorspiel (1. Akt)
TTITLE6=Die Walküre - Vorspiel (2. Akt)
TTITLE7=Die Walküre - Siegmunds Und Hundings Tod
TTITLE8=Die Walküre - Der Walkürenritt (Operfassung)
TTITLE9=Die Walküre - Der Feuerzauber
TTITLE10=Siegfried - Schmiedeszene
EXTD=
EXTT0=
EXTT1=
EXTT2=
EXTT3=
EXTT4=
EXTT5=
EXTT6=
EXTT7=
EXTT8=
EXTT9=
EXTT10=
PLAYORDER=
.
